<?xml version="1.0" standalone="no"?><!-- Generator: Gravit.io --><svg xmlns="http://www.w3.org/2000/svg" xmlns:xlink="http://www.w3.org/1999/xlink" style="isolation:isolate" viewBox="0 0 14.521 14.521" width="14.521" height="14.521"><defs><clipPath id="_clipPath_d43jeN6jzF9mcOHVlT24yrvgZu57pvor"><rect width="14.521" height="14.521"/></clipPath></defs><g clip-path="url(#_clipPath_d43jeN6jzF9mcOHVlT24yrvgZu57pvor)"><path d=" M 13.72 0 L 0.801 0 C 0.359 0 0 0.359 0 0.801 L 0 13.72 C 0 14.163 0.359 14.521 0.801 14.521 L 7.756 14.521 L 7.756 8.898 L 5.862 8.898 L 5.862 6.707 L 7.756 6.707 L 7.756 5.088 C 7.756 3.213 8.901 2.193 10.574 2.193 C 11.376 2.193 12.065 2.252 12.266 2.279 L 12.266 4.239 L 11.104 4.239 C 10.196 4.239 10.02 4.675 10.02 5.311 L 10.02 6.709 L 12.188 6.709 L 11.907 8.905 L 10.02 8.905 L 10.02 14.521 L 13.719 14.521 C 14.163 14.521 14.521 14.163 14.521 13.72 L 14.521 0.801 C 14.521 0.359 14.163 0 13.72 0 Z " fill="rgb(0,0,0)"/></g></svg>