<?xml version="1.0" standalone="no"?><!-- Generator: Gravit.io --><svg xmlns="http://www.w3.org/2000/svg" xmlns:xlink="http://www.w3.org/1999/xlink" style="isolation:isolate" viewBox="0 0 15.153 15.153" width="15.153" height="15.153"><defs><clipPath id="_clipPath_3PJX4JOQi45MVp8AAoCxAiGMhhymTUG5"><rect width="15.153" height="15.153"/></clipPath></defs><g clip-path="url(#_clipPath_3PJX4JOQi45MVp8AAoCxAiGMhhymTUG5)"><path d=" M 7.576 0 C 5.518 0 5.261 0.009 4.453 0.045 C 3.646 0.083 3.097 0.21 2.614 0.398 C 2.116 0.591 1.693 0.85 1.272 1.272 C 0.85 1.693 0.59 2.115 0.398 2.614 C 0.21 3.097 0.083 3.646 0.045 4.453 C 0.008 5.261 0 5.518 0 7.576 C 0 9.634 0.009 9.891 0.045 10.7 C 0.083 11.506 0.21 12.056 0.398 12.539 C 0.591 13.036 0.85 13.46 1.272 13.881 C 1.693 14.301 2.115 14.562 2.614 14.755 C 3.097 14.942 3.647 15.07 4.453 15.107 C 5.261 15.145 5.518 15.153 7.576 15.153 C 9.634 15.153 9.891 15.143 10.7 15.107 C 11.506 15.069 12.056 14.942 12.539 14.755 C 13.036 14.562 13.46 14.301 13.881 13.881 C 14.301 13.46 14.562 13.038 14.755 12.539 C 14.942 12.056 15.07 11.506 15.107 10.7 C 15.145 9.891 15.153 9.634 15.153 7.576 C 15.153 5.518 15.143 5.261 15.107 4.453 C 15.069 3.647 14.942 3.096 14.755 2.614 C 14.562 2.116 14.301 1.693 13.881 1.272 C 13.46 0.85 13.038 0.59 12.539 0.398 C 12.056 0.21 11.506 0.083 10.7 0.045 C 9.891 0.008 9.634 0 7.576 0 Z  M 7.576 1.364 C 9.599 1.364 9.84 1.374 10.638 1.409 C 11.377 1.443 11.778 1.566 12.044 1.671 C 12.399 1.808 12.65 1.972 12.917 2.236 C 13.181 2.501 13.346 2.753 13.483 3.108 C 13.586 3.375 13.71 3.776 13.743 4.514 C 13.779 5.313 13.788 5.553 13.788 7.576 C 13.788 9.599 13.778 9.84 13.741 10.638 C 13.702 11.377 13.579 11.778 13.475 12.044 C 13.334 12.399 13.173 12.65 12.907 12.917 C 12.643 13.181 12.387 13.346 12.036 13.483 C 11.771 13.586 11.364 13.71 10.625 13.743 C 9.821 13.779 9.584 13.788 7.557 13.788 C 5.53 13.788 5.293 13.778 4.49 13.741 C 3.75 13.702 3.343 13.579 3.078 13.475 C 2.719 13.334 2.472 13.173 2.207 12.907 C 1.941 12.643 1.772 12.387 1.639 12.036 C 1.535 11.771 1.412 11.364 1.374 10.625 C 1.345 9.83 1.335 9.584 1.335 7.567 C 1.335 5.549 1.345 5.303 1.374 4.498 C 1.412 3.759 1.535 3.352 1.639 3.087 C 1.772 2.727 1.941 2.481 2.207 2.215 C 2.472 1.951 2.719 1.78 3.078 1.648 C 3.343 1.544 3.741 1.421 4.48 1.383 C 5.285 1.354 5.522 1.345 7.548 1.345 L 7.576 1.364 Z  M 7.576 3.686 C 5.427 3.686 3.686 5.428 3.686 7.576 C 3.686 9.726 5.428 11.467 7.576 11.467 C 9.726 11.467 11.467 9.724 11.467 7.576 C 11.467 5.427 9.724 3.686 7.576 3.686 Z  M 7.576 10.102 C 6.181 10.102 5.051 8.972 5.051 7.576 C 5.051 6.181 6.181 5.051 7.576 5.051 C 8.972 5.051 10.102 6.181 10.102 7.576 C 10.102 8.972 8.972 10.102 7.576 10.102 Z  M 12.53 3.532 C 12.53 4.034 12.122 4.442 11.621 4.442 C 11.119 4.442 10.712 4.034 10.712 3.532 C 10.712 3.031 11.119 2.624 11.621 2.624 C 12.121 2.623 12.53 3.031 12.53 3.532 Z " fill="rgb(0,0,0)"/></g></svg>